[CENTER][IMG]http://www.shotpix.com/images/09801023951373342456.png[/IMG]

[URL="http://freeforumsigs.com/"][IMG]http://freeforumsigs.com/glittertext/holdz/z4e184578c3d39.gif[/IMG][/URL]
[URL="http://freeforumsigs.com/"][IMG]http://freeforumsigs.com/glittertext/holdz/z4e184631a76d0.gif[/IMG][/URL]

[IMG]http://www.shotpix.com/images/32546860675946839320.png[/IMG]
[/CENTER]
[quote]General 
Complete name : Chillar Party (2011) 400MB ~ 1CD ~ DVDScrRip ~ Team MJY ~ Moviejockey.com.mkv 
Format : AVI 
Format/Info : Audio Video Interleave 
File size : 419 MiB 
Duration : 1h 59mn 
Overall bit rate : 491 Kbps 
Writing application : MEncoder SVN-r33787-4.1.2 
Writing library : MPlayer 

Video 
ID : 0 
Format : AVC 
Format/Info : Advanced Video Codec 
Format profile : High@L2.1 
Format settings, CABAC : Yes 
Format settings, ReFrames : 5 frames 
Codec ID : h264 
Duration : 1h 59mn 
Bit rate : 400 Kbps 
Width : 656 pixels 
Height : 272 pixels 
Display aspect ratio : 2.40:1 
Frame rate : 25.000 fps 
Color space : YUV 
Chroma subsampling : 4:2:0 
Bit depth : 8 bits 
Scan type : Progressive 
Bits/(Pixel*Frame) : 0.090 
Stream size : 345 MiB (82%)
   
Audio 
ID : 1 
Format : MPEG Audio 
Format version : Version 1 
Format profile : Layer 3 
Mode : Joint stereo 
Mode extension : MS Stereo 
Codec ID : 55 
Codec ID/Hint : MP3 
Duration : 1h 59mn 
Bit rate mode : Variable 
Bit rate : 73.7 Kbps 
Channel(s) : 2 channels 
Sampling rate : 48.0 KHz 
Compression mode : Lossy 
Stream size : 63.0 MiB (15%) 
Alignment : Aligned on interleaves 
Interleave, duration : 24 ms (0.60 video frame) 
Interleave, preload duration : 2435 ms 
[/quote]

[CENTER]
[IMG]http://www.shotpix.com/images/76329016014437764201.png[/IMG]

[IMG]http://i.indiafm.com/firstlook/chillarparty1.jpg[/IMG]

[IMG]http://img31.imageshack.us/img31/295/thumbs20110715150717.jpg[/IMG]

[FONT=Comic Sans MS][SIZE=5][COLOR=Wheat]Credits:Thanks To Team IcTv[/COLOR][/SIZE][/FONT][/CENTER]

[FONT=Arial Narrow][SIZE=6][CENTER][COLOR=YellowGreen]Seeding Time:10am to 11pm[/COLOR][/CENTER]
[/SIZE][/FONT]

[SIZE=5][COLOR=SeaGreen][CENTER]Download-Seed-Enjoy![/CENTER]
[/COLOR][/SIZE]

[COLOR=DarkSlateBlue][FONT=Franklin Gothic Medium][CENTER][SIZE=7]Kindly Add "++ REP ++" By Clicking On Thanks Button If "U" Like My Post[/SIZE][/CENTER]
[/FONT][/COLOR]

[IMG]http://www.shotpix.com/images/12614003451920956573.png[/IMG]